<svg id="Layer_1" data-name="Layer 1" xmlns="http://www.w3.org/2000/svg" viewBox="0 0 47.91 47.91"><defs><style>.cls-1{fill:#fff;stroke:#e8e7e2;stroke-miterlimit:10;stroke-width:4px;}.cls-2{fill:#e9e9e3;}</style></defs><title>coin-w-king</title><circle class="cls-1" cx="23.96" cy="23.96" r="21.96"/><path class="cls-2" d="M11.92,20.2a1,1,0,0,1,1.1-.81,1.57,1.57,0,0,1,.55.18l5.14,2.5.28.13,2.4-2.76,2.76-3.18a1,1,0,0,1,1.72,0l5.07,5.85.08.09.27-.12,5.18-2.52a1,1,0,0,1,1.4.23,1.08,1.08,0,0,1,.14,1L37,24,34.2,33.35a1.06,1.06,0,0,1-1.14.85H16.94a1.06,1.06,0,0,1-1.13-.83L12,20.87c0-.09-.06-.17-.09-.26Zm2.7,2.16,0,.16q1.42,4.69,2.84,9.38c.07.22.17.26.37.26H32.13a.33.33,0,0,0,.38-.29q1.39-4.62,2.8-9.24c0-.08,0-.16.06-.27l-.31.14-3.71,1.81a1.06,1.06,0,0,1-1.47-.3l-3.5-4L25,18.4l-.17.18L20.14,24a1.07,1.07,0,0,1-1.51.31l-1.7-.83Z" transform="translate(-1.04 -1.04)"/></svg>